<svg width="21" height="6" viewBox="0 0 21 6" fill="none" xmlns="http://www.w3.org/2000/svg">
<path d="M2.888 5.336C1.64 5.336 0.704 4.328 0.704 3.032C0.704 1.736 1.64 0.728 2.888 0.728C4.16 0.728 5.096 1.736 5.096 3.032C5.096 4.328 4.16 5.336 2.888 5.336ZM10.6927 5.336C9.44469 5.336 8.50869 4.328 8.50869 3.032C8.50869 1.736 9.44469 0.728 10.6927 0.728C11.9647 0.728 12.9007 1.736 12.9007 3.032C12.9007 4.328 11.9647 5.336 10.6927 5.336ZM18.4974 5.336C17.2494 5.336 16.3134 4.328 16.3134 3.032C16.3134 1.736 17.2494 0.728 18.4974 0.728C19.7694 0.728 20.7054 1.736 20.7054 3.032C20.7054 4.328 19.7694 5.336 18.4974 5.336Z" fill="#F8BA00"/>
</svg>
