<svg width="40" height="40" viewBox="0 0 40 40" fill="none" xmlns="http://www.w3.org/2000/svg">
<g clip-path="url(#clip0_790_484)">
<path d="M39 20C39 30.4934 30.4934 39 20 39C9.50659 39 1 30.4934 1 20C1 9.50659 9.50659 1 20 1C30.4934 1 39 9.50659 39 20Z" fill="white" stroke="#999999" stroke-width="2"/>
<path d="M12.5 22C13.3284 22 14 21.3284 14 20.5C14 19.6716 13.3284 19 12.5 19C11.6716 19 11 19.6716 11 20.5C11 21.3284 11.6716 22 12.5 22Z" fill="#999999"/>
<path d="M20.5 22C21.3284 22 22 21.3284 22 20.5C22 19.6716 21.3284 19 20.5 19C19.6716 19 19 19.6716 19 20.5C19 21.3284 19.6716 22 20.5 22Z" fill="#999999"/>
<path d="M28.5 22C29.3284 22 30 21.3284 30 20.5C30 19.6716 29.3284 19 28.5 19C27.6716 19 27 19.6716 27 20.5C27 21.3284 27.6716 22 28.5 22Z" fill="#999999"/>
</g>
<defs>
<clipPath id="clip0_790_484">
<rect width="40" height="40" fill="white"/>
</clipPath>
</defs>
</svg>
